<svg width="280.6000061035156px" height="190.439990234375px" xmlns="http://www.w3.org/2000/svg" viewBox="109.69999694824219 -20.219995117187494 280.6000061035156 190.439990234375" style="background: rgba(0, 0, 0, 0) none repeat scroll 0% 0%;" preserveAspectRatio="xMidYMid"><defs><filter id="editing-jagged" x="-100%" y="-100%" width="300%" height="300%"><feTurbulence result="turb" baseFrequency="0.07" numOctaves="1" seed="1"></feTurbulence><feDisplacementMap in="SourceGraphic" in2="turb" scale="0"></feDisplacementMap></filter></defs><g filter="url(#editing-jagged)"><g transform="translate(154.72058868408203, 112.84999752044678)"><path d="M29.20-64.20L29.20-64.20L29.20-64.20Q25.60-64.20 23.20-61.60L23.20-61.60L23.20-61.60Q19-57 19-49.95L19-49.95L19-49.95Q19-42.90 22.60-41.50L22.60-41.50L22.60-41.50Q23.50-41.20 23.50-40.20L23.50-40.20L23.50-40.20Q23.50-37.20 21.50-35.15L21.50-35.15L21.50-35.15Q19.50-33.10 16.60-32.70L16.60-32.70L16.60-32.70Q15.70-32.70 15.70-32L15.70-32L15.70-32Q15.60-30.90 15.60-28.85L15.60-28.85L15.60-28.85Q15.60-26.80 15.80-24.35L15.80-24.35L15.80-24.35Q16-21.90 16.75-18.55L16.75-18.55L16.75-18.55Q17.50-15.20 18.75-12.75L18.75-12.75L18.75-12.75Q20-10.30 22.35-8.55L22.35-8.55L22.35-8.55Q24.70-6.80 28.45-6.80L28.45-6.80L28.45-6.80Q32.20-6.80 35.20-9.80L35.20-9.80L35.20-9.80Q38.20-12.80 39.40-17.60L39.40-17.60L39.40-17.60Q41.60-26 41.60-33.75L41.60-33.75L41.60-33.75Q41.60-41.50 40.60-47.40L40.60-47.40L40.60-47.40Q39.60-53.30 38.25-56.40L38.25-56.40L38.25-56.40Q36.90-59.50 35-61.40L35-61.40L35-61.40Q33.10-63.30 31.80-63.75L31.80-63.75L31.80-63.75Q30.50-64.20 29.20-64.20ZM11-54.30L11-54.30L11.40-54.90L11.40-54.90Q12.40-59.50 14.65-62.85L14.65-62.85L14.65-62.85Q16.90-66.20 19.15-67.85L19.15-67.85L19.15-67.85Q21.40-69.50 24.20-70.40L24.20-70.40L24.20-70.40Q27.90-71.60 30.70-71.60L30.70-71.60L30.70-71.60Q37.40-71.60 42.25-68.50L42.25-68.50L42.25-68.50Q47.10-65.40 49.60-60.10L49.60-60.10L49.60-60.10Q54.20-50 54.20-37.20L54.20-37.20L54.20-37.20Q54.20-15.70 44.20-5.90L44.20-5.90L44.20-5.90Q39.30-1.10 33.40 0.60L33.40 0.60L33.40 0.60Q29.70 1.70 26.30 1.70L26.30 1.70L26.30 1.70Q13.80 1.70 7.90-6.85L7.90-6.85L7.90-6.85Q2-15.40 2-28.50L2-28.50L2-28.50Q2-36.10 3.30-42.45L3.30-42.45L3.30-42.45Q4.60-48.80 6-51.40L6-51.40L7.30-54L7.30-54Q7.70-54.90 8.60-54.90L8.60-54.90L8.60-54.90Q9.50-54.90 9.95-54.75L9.95-54.75L9.95-54.75Q10.40-54.60 10.65-54.45L10.65-54.45L10.65-54.45Q10.90-54.30 11-54.30ZM89.45-35.50L89.45-35.50L89.45-35.50Q90.40-38 91.05-40.65L91.05-40.65L91.05-40.65Q91.70-43.30 91.70-45.55L91.70-45.55L91.70-45.55Q91.70-47.80 90.10-53.90L90.10-53.90L90.10-53.90Q87.30-64.10 85.30-66L85.30-66L84.70-66.70L84.70-66.70Q83.70-67.30 83.70-68.10L83.70-68.10L83.70-68.10Q83.70-69.80 88.20-71L88.20-71L88.20-71Q92.70-72.20 95.55-72.20L95.55-72.20L95.55-72.20Q98.40-72.20 98.90-70.50L98.90-70.50L98.90-70.50Q100.10-66.80 101.55-59.80L101.55-59.80L101.55-59.80Q103-52.80 104.05-47.75L104.05-47.75L104.05-47.75Q105.10-42.70 105.70-40L105.70-40L105.70-40Q106.30-37.30 107.30-33L107.30-33L107.30-33Q109.20-25 111.10-19.90L111.10-19.90L111.10-19.90Q111.70-18.50 112.55-18.50L112.55-18.50L112.55-18.50Q113.40-18.50 114.35-20.25L114.35-20.25L114.35-20.25Q115.30-22 116.95-25.25L116.95-25.25L116.95-25.25Q118.60-28.50 121.35-36.80L121.35-36.80L121.35-36.80Q124.10-45.10 124.10-51.20L124.10-51.20L124.10-51.20Q124.10-60.60 117.90-64.50L117.90-64.50L117.90-64.50Q117.40-65.10 117.40-65.80L117.40-65.80L117.40-65.80Q117.40-66.50 118.10-67.20L118.10-67.20L118.10-67.20Q118.80-67.70 120.10-68.55L120.10-68.55L120.10-68.55Q121.40-69.40 125.30-70.75L125.30-70.75L125.30-70.75Q129.20-72.10 132.30-72.10L132.30-72.10L132.30-72.10Q135.40-72.10 136-71.25L136-71.25L136-71.25Q136.60-70.40 136.60-68.20L136.60-68.20L136.60-68.20Q136.60-58.50 130.85-42.45L130.85-42.45L130.85-42.45Q125.10-26.40 118.65-14.15L118.65-14.15L118.65-14.15Q112.20-1.90 109 1.20L109 1.20L109 1.20Q107.30 2.70 107 2.70L107 2.70L107 2.70Q106.10 2.70 105.30 1.30L105.30 1.30L105.30 1.30Q101.90-4.40 97.90-21L97.90-21L97.90-21Q96.10-28.80 95.80-29.80L95.80-29.80L95.80-29.80Q95.50-30.80 95.30-30.80L95.30-30.80L95.30-30.80Q94.80-30.80 94.40-29.80L94.40-29.80L94.40-29.80Q90.90-21.70 86.60-13.95L86.60-13.95L86.60-13.95Q82.30-6.20 79.70-2.50L79.70-2.50L77.20 1.20L77.20 1.20Q76.20 2.60 75.20 2.60L75.20 2.60L75.20 2.60Q74.20 2.60 73.40 1.30L73.40 1.30L73.40 1.30Q70.70-3.80 66.80-18.40L66.80-18.40L65.50-23.40L65.50-23.40Q65.10-24.80 63.70-31L63.70-31L63.70-31Q58.40-54.70 55.60-60.60L55.60-60.60L55.60-60.60Q54.00-63.90 52.85-64.90L52.85-64.90L52.85-64.90Q51.70-65.90 51.00-66.10L51.00-66.10L51.00-66.10Q49.90-66.60 49.90-67.35L49.90-67.35L49.90-67.35Q49.90-68.10 50.70-68.80L50.70-68.80L50.70-68.80Q51.90-69.70 56.00-70.95L56.00-70.95L56.00-70.95Q60.10-72.20 62.90-72.20L62.90-72.20L62.90-72.20Q65.70-72.20 66.20-70.50L66.20-70.50L66.20-70.50Q68.20-66.80 70.90-53.90L70.90-53.90L70.90-53.90Q76.60-26.90 79.30-19.90L79.30-19.90L79.30-19.90Q79.80-18.50 80.70-18.50L80.70-18.50L80.70-18.50Q81.60-18.50 82.30-20L82.30-20L82.30-20Q83.20-20.90 85.85-26.95L85.85-26.95L85.85-26.95Q88.50-33 89.45-35.50ZM160.60-57.30L160.60-57.30L160.60-57.30Q152.70-47.40 149.20-37.50L149.20-37.50L149.30-37.50L149.30-37.50Q163.20-37.50 165.25-37.45L165.25-37.45L165.25-37.45Q167.30-37.40 167.50-37.60L167.50-37.60L167.50-37.60Q167.70-37.80 167.80-38.10L167.80-38.10L167.80-38.10Q166.10-50.40 165.10-54.85L165.10-54.85L165.10-54.85Q164.10-59.30 163.10-59.30L163.10-59.30L163.10-59.30Q162.10-59.30 160.60-57.30ZM151.70-10.20L151.70-10.20L153.90-10.60L153.90-10.60Q154.90-10.60 154.90-9.50L154.90-9.50L154.90-9.50Q154.90-6 153.50-3.60L153.50-3.60L153.50-3.60Q152.10-1.20 150.00-0.20L150.00-0.20L150.00-0.20Q146.60 1.50 144.20 1.50L144.20 1.50L144.20 1.50Q139.60 1.50 137.30-1.95L137.30-1.95L137.30-1.95Q135.00-5.40 135.00-12.35L135.00-12.35L135.00-12.35Q135.00-19.30 138.80-30.40L138.80-30.40L133.00-30.40L133.00-30.40Q131.90-30.40 131.90-31.50L131.90-31.50L131.90-31.50Q131.90-32.60 133.60-35.05L133.60-35.05L133.60-35.05Q135.30-37.50 137.20-37.50L137.20-37.50L141.70-37.50L141.70-37.50Q148.80-53.30 158.40-64.80L158.40-64.80L158.40-64.80Q160.90-67.80 164.55-70.40L164.55-70.40L164.55-70.40Q168.20-73 170.20-73L170.20-73L170.20-73Q172.20-73 173.20-71.20L173.20-71.20L173.20-71.20Q175.80-67 179.30-40.50L179.30-40.50L179.30-40.50Q180.50-29.10 183.45-16.95L183.45-16.95L183.45-16.95Q186.40-4.80 188.90-2.80L188.90-2.80L188.90-2.80Q189.50-2.40 189.50-1.80L189.50-1.80L189.50-1.80Q189.50-0.30 185.25 1L185.25 1L185.25 1Q181.00 2.30 178.75 2.30L178.75 2.30L178.75 2.30Q176.50 2.30 175.30 1.75L175.30 1.75L175.30 1.75Q174.10 1.20 173.80 0.60L173.80 0.60L173.80 0.60Q172.00-3.30 170.20-18L170.20-18L169.60-22.70L169.60-22.70Q169.20-27.40 168.80-29.80L168.80-29.80L168.10-30.30L147.20-30.40L147.20-30.40Q146.00-25.30 146.00-21.50L146.00-21.50L146.00-21.50Q146.00-17.70 146.25-15.95L146.25-15.95L146.25-15.95Q146.50-14.20 147.90-12.20L147.90-12.20L147.90-12.20Q149.30-10.20 151.70-10.20Z" fill="#444"></path></g></g><style>text {
  font-size: 64px;
  font-family: Arial Black;
  dominant-baseline: central;
  text-anchor: middle;
}</style></svg>