<svg width="100px" height="50px" xmlns="http://www.w3.org/2000/svg"
viewBox="54.410009765625006 -16.01999511718749 391.17998046875 182.03999023437498"
 style="background: rgba(0, 0, 0, 0) none repeat scroll 0% 0%;" preserveAspectRatio="xMidYMid"><defs><filter id="editing-jagged" x="-100%" y="-100%" width="300%" height="300%"><feTurbulence result="turb" baseFrequency="0" numOctaves="1" seed="1"></feTurbulence><feDisplacementMap in="SourceGraphic" in2="turb" scale="0"></feDisplacementMap></filter></defs><g filter="url(#editing-jagged)"><g transform="translate(51.21912078559399, 112)"><path d="M40.70-46.20L40.70-46.20L40.70-46.20Q42.20-49.20 42.20-52L42.20-52L42.20-52Q42.20-54.80 41.90-56.35L41.90-56.35L41.90-56.35Q41.60-57.90 40.90-59.10L40.90-59.10L40.90-59.10Q39.40-61.70 36.40-61.70L36.40-61.70L36.40-61.70Q32.70-61.70 29.70-59L29.70-59L29.70-59Q26.50-56.20 26.50-51.80L26.50-51.80L26.50-51.80Q26.50-49 28.45-46.85L28.45-46.85L28.45-46.85Q30.40-44.70 33.40-42.70L33.40-42.70L33.40-42.70Q36.40-40.70 39.80-38.70L39.80-38.70L39.80-38.70Q43.20-36.70 46.20-34.30L46.20-34.30L46.20-34.30Q53.10-28.80 53.10-21.40L53.10-21.40L53.10-21.40Q53.10-16.40 50.45-12.15L50.45-12.15L50.45-12.15Q47.80-7.90 43.40-4.80L43.40-4.80L43.40-4.80Q33.80 2 21.10 2L21.10 2L21.10 2Q10.80 2 5.50-1.35L5.50-1.35L5.50-1.35Q0.20-4.70 0.20-9.80L0.20-9.80L0.20-9.80Q0.20-18.90 7.30-21.20L7.30-21.20L7.30-21.20Q9.30-21.90 12.35-21.90L12.35-21.90L12.35-21.90Q15.40-21.90 18.90-20.60L18.90-20.60L18.90-20.60Q17.30-16.50 17.30-12.80L17.30-12.80L17.30-12.80Q17.30-4.80 23-4.80L23-4.80L23-4.80Q26.70-4.80 29.75-7.50L29.75-7.50L29.75-7.50Q32.80-10.20 32.80-13.25L32.80-13.25L32.80-13.25Q32.80-16.30 30.85-18.50L30.85-18.50L30.85-18.50Q28.90-20.70 26-22.45L26-22.45L26-22.45Q23.10-24.20 19.75-25.90L19.75-25.90L19.75-25.90Q16.40-27.60 13.50-30L13.50-30L13.50-30Q6.70-35.50 6.70-44.30L6.70-44.30L6.70-44.30Q6.70-50 9.50-54.45L9.50-54.45L9.50-54.45Q12.30-58.90 16.80-61.90L16.80-61.90L16.80-61.90Q25.80-68 36.85-68L36.85-68L36.85-68Q47.90-68 53.25-64.70L53.25-64.70L53.25-64.70Q58.60-61.40 58.60-55.80L58.60-55.80L58.60-55.80Q58.60-50.90 54.80-47.80L54.80-47.80L54.80-47.80Q51.50-45.20 47.50-45.20L47.50-45.20L47.50-45.20Q43.50-45.20 40.70-46.20ZM109.80-41.60L109.80-41.60L109.80-41.60Q109.80-37.40 106.30-34.80L106.30-34.80L106.30-34.80Q102.80-32.20 97.10-32.20L97.10-32.20L97.10-32.20Q94.70-32.20 93.30-32.90L93.30-32.90L93.30-32.90Q94.40-35.50 94.75-38.75L94.75-38.75L94.75-38.75Q95.10-42 95.10-42.90L95.10-42.90L95.10-42.90Q95.10-47.10 92.20-47.10L92.20-47.10L92.20-47.10Q90.20-47.10 87.95-44.60L87.95-44.60L87.95-44.60Q85.70-42.10 83.80-38.20L83.80-38.20L83.80-38.20Q79.60-29.20 79.60-20.10L79.60-20.10L79.60-20.10Q79.60-15.10 81.50-12.85L81.50-12.85L81.50-12.85Q83.40-10.60 87.60-10.60L87.60-10.60L87.60-10.60Q93.40-10.60 98-15.40L98-15.40L98-15.40Q99.30-16.90 100-18.60L100-18.60L100-18.60Q103.80-16.60 103.80-11.10L103.80-11.10L103.80-11.10Q103.80-5.50 97.60-1.80L97.60-1.80L97.60-1.80Q91.20 2 81 2L81 2L81 2Q60.70 2 60.70-19.50L60.70-19.50L60.70-19.50Q60.70-35.20 69.60-44.20L69.60-44.20L69.60-44.20Q78.20-53 94-53L94-53L94-53Q109.80-53 109.80-41.60ZM162.80-11.10L162.80-11.10L162.80-11.10Q162.80-6.70 167.30-5.40L167.30-5.40L167.30-5.40Q166.20-1.70 161.90 0.30L161.90 0.30L161.90 0.30Q158.30 2 154.35 2L154.35 2L154.35 2Q150.40 2 148.35 0.95L148.35 0.95L148.35 0.95Q146.30-0.10 145.20-1.80L145.20-1.80L145.20-1.80Q143.40-4.40 143.40-9.30L143.40-9.30L143.40-9.30Q143.40-12.20 145-20.20L145-20.20L146.40-27.80L146.40-27.80Q148.10-36.50 148.10-39.70L148.10-39.70L148.10-39.70Q148.10-45.30 145-45.30L145-45.30L145-45.30Q141.10-45.30 138.60-39.60L138.60-39.60L138.60-39.60Q137.60-37.40 136.90-34.10L136.90-34.10L130.10 0L110.00 2L124.10-70L144.20-72L143.40-68L143.40-68Q140.60-52.60 138.20-47.40L138.20-47.40L138.20-47.40Q143.80-53 154.10-53L154.10-53L154.10-53Q165-53 167-45.80L167-45.80L167-45.80Q167.70-43.50 167.70-41.50L167.70-41.50L167.70-41.50Q167.70-39.50 167.55-37.95L167.55-37.95L167.55-37.95Q167.40-36.40 166.90-33.60L166.90-33.60L165.60-26.40L163.30-15.10L163.30-15.10Q162.80-12.80 162.80-11.10ZM197.20 2L197.20 2L197.20 2Q175.20 2 175.20-18.70L175.20-18.70L175.20-18.70Q175.20-33.40 183.30-42.90L183.30-42.90L183.30-42.90Q191.90-53 206.80-53L206.80-53L206.80-53Q217.60-53 223.10-48L223.10-48L223.10-48Q228.60-43 228.60-32.50L228.60-32.50L228.60-32.50Q228.60-16.50 220.00-7.20L220.00-7.20L220.00-7.20Q211.60 2 197.20 2ZM199.80-41.50L199.80-41.50L199.80-41.50Q198.60-38.80 197.65-34.75L197.65-34.75L197.65-34.75Q196.70-30.70 195.50-24.30L195.50-24.30L195.50-24.30Q194.30-17.90 194.30-10L194.30-10L194.30-10Q194.30-7.40 195.15-5.70L195.15-5.70L195.15-5.70Q196.00-4 198.30-4L198.30-4L198.30-4Q200.60-4 202.05-5.10L202.05-5.10L202.05-5.10Q203.50-6.20 204.60-8.80L204.60-8.80L204.60-8.80Q206.60-13.40 208.20-21.95L208.20-21.95L208.20-21.95Q209.80-30.50 209.95-34.20L209.95-34.20L209.95-34.20Q210.10-37.90 210.10-40.65L210.10-40.65L210.10-40.65Q210.10-43.40 209.30-45.20L209.30-45.20L209.30-45.20Q208.50-47 206.25-47L206.25-47L206.25-47Q204.00-47 202.50-45.60L202.50-45.60L202.50-45.60Q201.00-44.20 199.80-41.50ZM276.30-15.40L276.30-15.40L276.30-15.40Q278.20-13 278.20-8.35L278.20-8.35L278.20-8.35Q278.20-3.70 274.65-0.85L274.65-0.85L274.65-0.85Q271.10 2 264.90 2L264.90 2L264.90 2Q261.30 2 255.70 1.20L255.70 1.20L255.70 1.20Q244.70-0.50 241.55-0.50L241.55-0.50L241.55-0.50Q238.40-0.50 237.10-0.35L237.10-0.35L237.10-0.35Q235.80-0.20 233.70 0L233.70 0L245.80-66L267.70-66L257.70-11L257.70-11Q259-10.80 260.20-10.80L260.20-10.80L262.70-10.80L262.70-10.80Q271.10-10.80 276.30-15.40ZM289.25-3L289.25-3L289.25-3Q286.90-5.60 285.85-9.70L285.85-9.70L285.85-9.70Q284.80-13.80 284.80-20.50L284.80-20.50L284.80-20.50Q284.80-27.20 287.10-33.30L287.10-33.30L287.10-33.30Q289.40-39.40 293.60-43.80L293.60-43.80L293.60-43.80Q302.20-53 316.40-53L316.40-53L316.40-53Q321.50-53 325.20-51.30L325.20-51.30L342.30-53L334.90-14L334.90-14Q334.60-12.80 334.60-10.60L334.60-10.60L334.60-10.60Q334.60-8.40 335.95-7L335.95-7L335.95-7Q337.30-5.60 339.30-5.40L339.30-5.40L339.30-5.40Q338.30-2 334.65 0L334.65 0L334.65 0Q331.00 2 326.90 2L326.90 2L326.90 2Q322.80 2 320.05 0.45L320.05 0.45L320.05 0.45Q317.30-1.10 316.50-3.70L316.50-3.70L316.50-3.70Q314.90-1.20 311.50 0.40L311.50 0.40L311.50 0.40Q308.10 2 303.55 2L303.55 2L303.55 2Q299.00 2 295.30 0.80L295.30 0.80L295.30 0.80Q291.60-0.40 289.25-3ZM310.35-43.60L310.35-43.60L310.35-43.60Q309.20-41.80 308.20-38.75L308.20-38.75L308.20-38.75Q307.20-35.70 305.55-27.55L305.55-27.55L305.55-27.55Q303.90-19.40 303.90-13.60L303.90-13.60L303.90-13.60Q303.90-7.80 304.80-6.10L304.80-6.10L304.80-6.10Q305.70-4.40 307.30-4.40L307.30-4.40L307.30-4.40Q310.50-4.40 312.85-7.45L312.85-7.45L312.85-7.45Q315.20-10.50 316.10-15.90L316.10-15.90L321.40-45.20L321.40-45.20Q319.30-47 316.85-47L316.85-47L316.85-47Q314.40-47 312.95-46.20L312.95-46.20L312.95-46.20Q311.50-45.40 310.35-43.60ZM379.00-28.10L379.00-28.10L379.00-28.10Q382.60-34.50 382.60-41L382.60-41L382.60-41Q382.60-45.30 379.50-45.30L379.50-45.30L379.50-45.30Q377.10-45.30 374.60-41.20L374.60-41.20L374.60-41.20Q372.00-37.10 371.20-31.80L371.20-31.80L366.00 0L345.30 2L355.50-51L372.00-53L370.20-42.90L370.20-42.90Q375.10-53 386.10-53L386.10-53L386.10-53Q391.90-53 395.05-50L395.05-50L395.05-50Q398.20-47 398.20-40.85L398.20-40.85L398.20-40.85Q398.20-34.70 394.15-30.80L394.15-30.80L394.15-30.80Q390.10-26.90 383.20-26.90L383.20-26.90L383.20-26.90Q380.20-26.90 379.00-28.10Z" fill="#ffe600"></path></g></g><style>text {
  font-size: 64px;
  font-family: Arial Black;
  dominant-baseline: central;
  text-anchor: middle;
}</style></svg>
