<svg width="239.99999389648437px" height="164.03999023437498px" xmlns="http://www.w3.org/2000/svg" viewBox="130.0000030517578 -7.0199951171874915 239.99999389648437 164.03999023437498" style="background: rgba(0, 0, 0, 0) none repeat scroll 0% 0%;" preserveAspectRatio="xMidYMid"><defs><filter id="editing-jagged" x="-100%" y="-100%" width="300%" height="300%"><feTurbulence result="turb" baseFrequency="0.07" numOctaves="1" seed="1"></feTurbulence><feDisplacementMap in="SourceGraphic" in2="turb" scale="0"></feDisplacementMap></filter></defs><g filter="url(#editing-jagged)"><g transform="translate(170.2097018957138, 106.79499816894531)"><path d="M24.53-53.93L24.53-53.93L24.53-53.93Q21.50-53.93 19.49-51.74L19.49-51.74L19.49-51.74Q15.96-47.88 15.96-41.96L15.96-41.96L15.96-41.96Q15.96-36.04 18.98-34.86L18.98-34.86L18.98-34.86Q19.74-34.61 19.74-33.77L19.74-33.77L19.74-33.77Q19.74-31.25 18.06-29.53L18.06-29.53L18.06-29.53Q16.38-27.80 13.94-27.47L13.94-27.47L13.94-27.47Q13.19-27.47 13.19-26.88L13.19-26.88L13.19-26.88Q13.10-25.96 13.10-24.23L13.10-24.23L13.10-24.23Q13.10-22.51 13.27-20.45L13.27-20.45L13.27-20.45Q13.44-18.40 14.07-15.58L14.07-15.58L14.07-15.58Q14.70-12.77 15.75-10.71L15.75-10.71L15.75-10.71Q16.80-8.65 18.77-7.18L18.77-7.18L18.77-7.18Q20.75-5.71 23.90-5.71L23.90-5.71L23.90-5.71Q27.05-5.71 29.57-8.23L29.57-8.23L29.57-8.23Q32.09-10.75 33.10-14.78L33.10-14.78L33.10-14.78Q34.94-21.84 34.94-28.35L34.94-28.35L34.94-28.35Q34.94-34.86 34.10-39.82L34.10-39.82L34.10-39.82Q33.26-44.77 32.13-47.38L32.13-47.38L32.13-47.38Q31.00-49.98 29.40-51.58L29.40-51.58L29.40-51.58Q27.80-53.17 26.71-53.55L26.71-53.55L26.71-53.55Q25.62-53.93 24.53-53.93ZM9.24-45.61L9.24-45.61L9.58-46.12L9.58-46.12Q10.42-49.98 12.31-52.79L12.31-52.79L12.31-52.79Q14.20-55.61 16.09-56.99L16.09-56.99L16.09-56.99Q17.98-58.38 20.33-59.14L20.33-59.14L20.33-59.14Q23.44-60.14 25.79-60.14L25.79-60.14L25.79-60.14Q31.42-60.14 35.49-57.54L35.49-57.54L35.49-57.54Q39.56-54.94 41.66-50.48L41.66-50.48L41.66-50.48Q45.53-42 45.53-31.25L45.53-31.25L45.53-31.25Q45.53-13.19 37.13-4.96L37.13-4.96L37.13-4.96Q33.01-0.92 28.06 0.50L28.06 0.50L28.06 0.50Q24.95 1.43 22.09 1.43L22.09 1.43L22.09 1.43Q11.59 1.43 6.64-5.75L6.64-5.75L6.64-5.75Q1.68-12.94 1.68-23.94L1.68-23.94L1.68-23.94Q1.68-30.32 2.77-35.66L2.77-35.66L2.77-35.66Q3.86-40.99 5.04-43.18L5.04-43.18L6.13-45.36L6.13-45.36Q6.47-46.12 7.22-46.12L7.22-46.12L7.22-46.12Q7.98-46.12 8.36-45.99L8.36-45.99L8.36-45.99Q8.74-45.86 8.95-45.74L8.95-45.74L8.95-45.74Q9.16-45.61 9.24-45.61ZM75.14-29.82L75.14-29.82L75.14-29.82Q75.94-31.92 76.48-34.15L76.48-34.15L76.48-34.15Q77.03-36.37 77.03-38.26L77.03-38.26L77.03-38.26Q77.03-40.15 75.68-45.28L75.68-45.28L75.68-45.28Q73.33-53.84 71.65-55.44L71.65-55.44L71.15-56.03L71.15-56.03Q70.31-56.53 70.31-57.20L70.31-57.20L70.31-57.20Q70.31-58.63 74.09-59.64L74.09-59.64L74.09-59.64Q77.87-60.65 80.26-60.65L80.26-60.65L80.26-60.65Q82.66-60.65 83.08-59.22L83.08-59.22L83.08-59.22Q84.08-56.11 85.30-50.23L85.30-50.23L85.30-50.23Q86.52-44.35 87.40-40.11L87.40-40.11L87.40-40.11Q88.28-35.87 88.79-33.60L88.79-33.60L88.79-33.60Q89.29-31.33 90.13-27.72L90.13-27.72L90.13-27.72Q91.73-21 93.32-16.72L93.32-16.72L93.32-16.72Q93.83-15.54 94.54-15.54L94.54-15.54L94.54-15.54Q95.26-15.54 96.05-17.01L96.05-17.01L96.05-17.01Q96.85-18.48 98.24-21.21L98.24-21.21L98.24-21.21Q99.62-23.94 101.93-30.91L101.93-30.91L101.93-30.91Q104.24-37.88 104.24-43.01L104.24-43.01L104.24-43.01Q104.24-50.90 99.04-54.18L99.04-54.18L99.04-54.18Q98.62-54.68 98.62-55.27L98.62-55.27L98.62-55.27Q98.62-55.86 99.20-56.45L99.20-56.45L99.20-56.45Q99.79-56.87 100.88-57.58L100.88-57.58L100.88-57.58Q101.98-58.30 105.25-59.43L105.25-59.43L105.25-59.43Q108.53-60.56 111.13-60.56L111.13-60.56L111.13-60.56Q113.74-60.56 114.24-59.85L114.24-59.85L114.24-59.85Q114.74-59.14 114.74-57.29L114.74-57.29L114.74-57.29Q114.74-49.14 109.91-35.66L109.91-35.66L109.91-35.66Q105.08-22.18 99.67-11.89L99.67-11.89L99.67-11.89Q94.25-1.60 91.56 1.01L91.56 1.01L91.56 1.01Q90.13 2.27 89.88 2.27L89.88 2.27L89.88 2.27Q89.12 2.27 88.45 1.09L88.45 1.09L88.45 1.09Q85.60-3.70 82.24-17.64L82.24-17.64L82.24-17.64Q80.72-24.19 80.47-25.03L80.47-25.03L80.47-25.03Q80.22-25.87 80.05-25.87L80.05-25.87L80.05-25.87Q79.63-25.87 79.30-25.03L79.30-25.03L79.30-25.03Q76.36-18.23 72.74-11.72L72.74-11.72L72.74-11.72Q69.13-5.21 66.95-2.10L66.95-2.10L64.85 1.01L64.85 1.01Q64.01 2.18 63.17 2.18L63.17 2.18L63.17 2.18Q62.33 2.18 61.66 1.09L61.66 1.09L61.66 1.09Q59.39-3.19 56.11-15.46L56.11-15.46L55.02-19.66L55.02-19.66Q54.68-20.83 53.51-26.04L53.51-26.04L53.51-26.04Q49.06-45.95 46.70-50.90L46.70-50.90L46.70-50.90Q45.36-53.68 44.39-54.52L44.39-54.52L44.39-54.52Q43.43-55.36 42.84-55.52L42.84-55.52L42.84-55.52Q41.92-55.94 41.92-56.57L41.92-56.57L41.92-56.57Q41.92-57.20 42.59-57.79L42.59-57.79L42.59-57.79Q43.60-58.55 47.04-59.60L47.04-59.60L47.04-59.60Q50.48-60.65 52.84-60.65L52.84-60.65L52.84-60.65Q55.19-60.65 55.61-59.22L55.61-59.22L55.61-59.22Q57.29-56.11 59.56-45.28L59.56-45.28L59.56-45.28Q64.34-22.60 66.61-16.72L66.61-16.72L66.61-16.72Q67.03-15.54 67.79-15.54L67.79-15.54L67.79-15.54Q68.54-15.54 69.13-16.80L69.13-16.80L69.13-16.80Q69.89-17.56 72.11-22.64L72.11-22.64L72.11-22.64Q74.34-27.72 75.14-29.82ZM134.90-48.13L134.90-48.13L134.90-48.13Q128.27-39.82 125.33-31.50L125.33-31.50L125.41-31.50L125.41-31.50Q137.09-31.50 138.81-31.46L138.81-31.46L138.81-31.46Q140.53-31.42 140.70-31.58L140.70-31.58L140.70-31.58Q140.87-31.75 140.95-32.00L140.95-32.00L140.95-32.00Q139.52-42.34 138.68-46.07L138.68-46.07L138.68-46.07Q137.84-49.81 137.00-49.81L137.00-49.81L137.00-49.81Q136.16-49.81 134.90-48.13ZM127.43-8.57L127.43-8.57L129.28-8.90L129.28-8.90Q130.12-8.90 130.12-7.98L130.12-7.98L130.12-7.98Q130.12-5.04 128.94-3.02L128.94-3.02L128.94-3.02Q127.76-1.01 126.00-0.17L126.00-0.17L126.00-0.17Q123.14 1.26 121.13 1.26L121.13 1.26L121.13 1.26Q117.26 1.26 115.33-1.64L115.33-1.64L115.33-1.64Q113.40-4.54 113.40-10.37L113.40-10.37L113.40-10.37Q113.40-16.21 116.59-25.54L116.59-25.54L111.72-25.54L111.72-25.54Q110.80-25.54 110.80-26.46L110.80-26.46L110.80-26.46Q110.80-27.38 112.22-29.44L112.22-29.44L112.22-29.44Q113.65-31.50 115.25-31.50L115.25-31.50L119.03-31.50L119.03-31.50Q124.99-44.77 133.06-54.43L133.06-54.43L133.06-54.43Q135.16-56.95 138.22-59.14L138.22-59.14L138.22-59.14Q141.29-61.32 142.97-61.32L142.97-61.32L142.97-61.32Q144.65-61.32 145.49-59.81L145.49-59.81L145.49-59.81Q147.67-56.28 150.61-34.02L150.61-34.02L150.61-34.02Q151.62-24.44 154.10-14.24L154.10-14.24L154.10-14.24Q156.58-4.03 158.68-2.35L158.68-2.35L158.68-2.35Q159.18-2.02 159.18-1.51L159.18-1.51L159.18-1.51Q159.18-0.25 155.61 0.84L155.61 0.84L155.61 0.84Q152.04 1.93 150.15 1.93L150.15 1.93L150.15 1.93Q148.26 1.93 147.25 1.47L147.25 1.47L147.25 1.47Q146.24 1.01 145.99 0.50L145.99 0.50L145.99 0.50Q144.48-2.77 142.97-15.12L142.97-15.12L142.46-19.07L142.46-19.07Q142.13-23.02 141.79-25.03L141.79-25.03L141.20-25.45L123.65-25.54L123.65-25.54Q122.64-21.25 122.64-18.06L122.64-18.06L122.64-18.06Q122.64-14.87 122.85-13.40L122.85-13.40L122.85-13.40Q123.06-11.93 124.24-10.25L124.24-10.25L124.24-10.25Q125.41-8.57 127.43-8.57Z" fill="#444"></path></g></g><style>text {
  font-size: 64px;
  font-family: Arial Black;
  dominant-baseline: central;
  text-anchor: middle;
}</style></svg>
